<svg width="150" height="33" viewBox="0 0 150 33" fill="none" xmlns="http://www.w3.org/2000/svg">
<path d="M26.6229 12.2842C26.7568 12.7169 27.0217 13.0973 27.381 13.3732C27.7403 13.6491 28.1764 13.8068 28.6291 13.8246H31.3718C31.7942 13.8221 32.1985 13.6525 32.4963 13.353C32.7941 13.0535 32.9612 12.6484 32.9612 12.2261V1.5694C32.9612 1.14712 32.7941 0.742009 32.4963 0.442508C32.1985 0.143007 31.7942 -0.0265411 31.3718 -0.0291003H24.9753C24.7833 -0.0429273 24.5908 -0.00887621 24.4152 0.0699873C24.2396 0.148851 24.0863 0.270056 23.9691 0.422744C23.8519 0.575432 23.7744 0.754819 23.7437 0.944806C23.7129 1.13479 23.7299 1.32944 23.7929 1.51127L26.6229 12.2842Z" fill="#BAC9D2"/>
<path d="M24.5295 19.1336C24.0781 19.1152 23.6435 18.9571 23.2859 18.6812C22.9282 18.4052 22.6652 18.025 22.533 17.5932L20.7691 10.9376C20.5462 10.085 20.1295 10.0657 19.8 10.9376L13.2 29.7903C12.9092 30.6137 12.3374 30.6525 11.9401 29.8775L7.09426 20.5286C6.85057 20.1197 6.51014 19.7769 6.10289 19.5302C5.69563 19.2836 5.234 19.1407 4.75857 19.1142H1.63787C1.21376 19.1142 0.807024 19.2826 0.507131 19.5824C0.207238 19.8822 0.0387573 20.2887 0.0387573 20.7127V31.3694C0.0387573 31.7934 0.207238 32.1999 0.507131 32.4997C0.807024 32.7995 1.21376 32.9679 1.63787 32.9679H31.4105C31.833 32.9653 32.2372 32.7958 32.535 32.4963C32.8328 32.1968 33 31.7917 33 31.3694V20.7127C33 20.2904 32.8328 19.8853 32.535 19.5858C32.2372 19.2863 31.833 19.1167 31.4105 19.1142L24.5295 19.1336Z" fill="#3B54A5"/>
<path d="M7.94715 13.8245C8.42257 13.8511 8.88418 13.9939 9.29144 14.2406C9.6987 14.4872 10.0391 14.83 10.2828 15.2389L10.9806 16.5662C11.378 17.3509 11.9498 17.3025 12.2405 16.479L17.4934 1.51118C17.5727 1.3411 17.6057 1.15311 17.589 0.966202C17.5724 0.779292 17.5066 0.600087 17.3984 0.446727C17.2903 0.293367 17.1435 0.171285 16.973 0.0928175C16.8024 0.0143501 16.6142 -0.0177134 16.4273 -0.00013537H1.59913C1.38913 -0.00013537 1.18117 0.0412076 0.98716 0.12154C0.793146 0.201872 0.616865 0.319624 0.468373 0.468059C0.319882 0.616493 0.2021 0.792707 0.121737 0.986646C0.0413736 1.18059 0 1.38845 0 1.59836V12.2551C0 12.465 0.0413736 12.6729 0.121737 12.8668C0.2021 13.0607 0.319882 13.237 0.468373 13.3854C0.616865 13.5338 0.793146 13.6516 0.98716 13.7319C1.18117 13.8122 1.38913 13.8536 1.59913 13.8536L7.94715 13.8245Z" fill="#BAC9D2"/>
<path d="M68.0644 11.9312C67.2378 11.9596 66.4253 12.1528 65.6745 12.4996C64.9236 12.8464 64.2497 13.3397 63.6921 13.9505C63.1346 14.5614 62.7047 15.2775 62.4278 16.0568C62.1508 16.8361 62.0324 17.6628 62.0794 18.4885C62.1238 20.0131 62.7095 21.472 63.7314 22.6041C64.7534 23.7363 66.1449 24.4677 67.657 24.6675C68.5841 24.7932 69.5275 24.7123 70.4197 24.4306C71.3119 24.1489 72.1307 23.6733 72.8175 23.0379C72.8386 23.018 72.8555 22.9939 72.867 22.9672C72.8785 22.9405 72.8844 22.9118 72.8844 22.8827C72.8844 22.8536 72.8785 22.8249 72.867 22.7982C72.8555 22.7715 72.8386 22.7474 72.8175 22.7275L71.4012 21.2143C71.3613 21.1746 71.3072 21.1523 71.2509 21.1523C71.1946 21.1523 71.1405 21.1746 71.1005 21.2143C70.1305 22.0194 66.4833 22.97 64.8827 19.6914H73.9427C74.0328 19.2476 74.0783 18.7959 74.0785 18.343C74.078 17.8934 74.0326 17.445 73.9427 17.0044C73.7025 15.6086 72.985 14.3396 71.9128 13.4142C70.8406 12.4889 69.4803 11.9647 68.0644 11.9312ZM64.8633 16.985C65.0927 16.3148 65.5231 15.7317 66.096 15.3151C66.6688 14.8985 67.3562 14.6687 68.0644 14.657C68.7713 14.6693 69.4572 14.8995 70.0283 15.3161C70.5995 15.7328 71.0282 16.3156 71.2557 16.985H64.8633Z" fill="#3B54A5"/>
<path d="M58.4806 8.28393H55.5705C55.5267 8.28293 55.4837 8.29543 55.4473 8.31972C55.4108 8.34402 55.3827 8.37893 55.3668 8.41974L50.604 20.0599C50.604 20.0599 45.9092 8.27424 45.851 8.27424H42.8148C42.7604 8.27377 42.7076 8.29324 42.6665 8.32897C42.6254 8.36471 42.5988 8.41424 42.5917 8.46824L40.8069 24.5899C40.8027 24.6203 40.8051 24.6512 40.8139 24.6806C40.8228 24.7099 40.8378 24.737 40.8581 24.76C40.8783 24.783 40.9033 24.8014 40.9313 24.8139C40.9593 24.8264 40.9896 24.8327 41.0203 24.8324H43.6102C43.6647 24.8329 43.7174 24.8134 43.7585 24.7777C43.7996 24.742 43.8262 24.6924 43.8333 24.6384L45.0458 14.3272L48.9744 24.6966C48.9903 24.7374 49.0184 24.7724 49.0549 24.7967C49.0913 24.821 49.1343 24.8334 49.1781 24.8324H52.2337C52.278 24.8301 52.3207 24.8152 52.3567 24.7894C52.3928 24.7636 52.4208 24.7281 52.4374 24.6869L56.3271 14.3078L57.5397 24.6578C57.5465 24.7102 57.5717 24.7584 57.6108 24.794C57.6499 24.8295 57.7003 24.85 57.7531 24.8518H60.3527C60.3834 24.8521 60.4137 24.8458 60.4417 24.8333C60.4697 24.8208 60.4947 24.8024 60.5149 24.7794C60.5352 24.7564 60.5502 24.7293 60.5591 24.7C60.5679 24.6706 60.5703 24.6397 60.5661 24.6093L58.7037 8.48764C58.6988 8.4319 58.6732 8.38001 58.6319 8.34228C58.5905 8.30455 58.5365 8.28372 58.4806 8.28393Z" fill="#3B54A5"/>
<path d="M102.607 8.16754H91.5679C91.539 8.16751 91.5104 8.17334 91.4839 8.18467C91.4574 8.19599 91.4334 8.21258 91.4134 8.23344C91.3935 8.25429 91.378 8.27897 91.3678 8.30599C91.3577 8.33301 91.3532 8.36181 91.3545 8.39064V10.6314C91.3532 10.6602 91.3577 10.689 91.3678 10.716C91.378 10.7431 91.3935 10.7677 91.4134 10.7886C91.4334 10.8095 91.4574 10.826 91.4839 10.8374C91.5104 10.8487 91.539 10.8545 91.5679 10.8545H95.5643C95.6235 10.8545 95.6803 10.878 95.7221 10.9198C95.7639 10.9617 95.7874 11.0184 95.7874 11.0776V24.4638C95.7874 24.5204 95.8099 24.5747 95.85 24.6147C95.89 24.6548 95.9443 24.6772 96.0009 24.6772H98.2513C98.2801 24.6786 98.3089 24.674 98.3359 24.6639C98.363 24.6537 98.3877 24.6382 98.4085 24.6183C98.4294 24.5983 98.446 24.5744 98.4573 24.5478C98.4686 24.5213 98.4744 24.4927 98.4744 24.4638V11.0776C98.4731 11.0488 98.4776 11.02 98.4878 10.9929C98.4979 10.9659 98.5134 10.9412 98.5334 10.9204C98.5533 10.8995 98.5773 10.8829 98.6038 10.8716C98.6304 10.8603 98.6589 10.8545 98.6878 10.8545H102.568C102.597 10.8545 102.625 10.8487 102.652 10.8374C102.678 10.826 102.702 10.8095 102.722 10.7886C102.742 10.7677 102.758 10.7431 102.768 10.716C102.778 10.689 102.783 10.6602 102.781 10.6314V8.39064C102.784 8.33853 102.769 8.28706 102.736 8.24594C102.704 8.20483 102.658 8.17693 102.607 8.16754Z" fill="#3B54A5"/>
<path d="M123.763 11.9312H121.522C121.493 11.9299 121.464 11.9344 121.437 11.9446C121.41 11.9547 121.386 11.9702 121.365 11.9902C121.344 12.0101 121.327 12.0341 121.316 12.0606C121.305 12.0872 121.299 12.1158 121.299 12.1446V13.1146C119.966 12.1573 118.316 11.7508 116.691 11.9797C115.288 12.1806 113.991 12.8407 113.003 13.8569C112.015 14.8731 111.392 16.188 111.23 17.5961C111.131 18.4916 111.221 19.398 111.495 20.2562C111.77 21.1144 112.222 21.9051 112.822 22.5769C113.422 23.2487 114.158 23.7864 114.98 24.155C115.802 24.5236 116.692 24.7147 117.593 24.716C118.928 24.7214 120.231 24.3075 121.318 23.5326V24.5026C121.318 24.5618 121.342 24.6186 121.384 24.6604C121.426 24.7022 121.482 24.7257 121.541 24.7257H123.782C123.811 24.7257 123.84 24.72 123.868 24.7087C123.895 24.6975 123.919 24.6811 123.94 24.6604C123.961 24.6397 123.977 24.6151 123.988 24.588C124 24.5609 124.005 24.5319 124.005 24.5026V18.3236V12.1446C124.006 12.114 123.999 12.0836 123.987 12.0556C123.974 12.0276 123.956 12.0027 123.933 11.9824C123.91 11.9622 123.883 11.9471 123.853 11.9383C123.824 11.9294 123.793 11.927 123.763 11.9312ZM117.593 21.9903C116.62 21.9903 115.686 21.6043 114.997 20.9169C114.308 20.2296 113.92 19.297 113.917 18.3236C113.92 17.3503 114.308 16.4177 114.997 15.7303C115.686 15.0429 116.62 14.657 117.593 14.657C118.566 14.657 119.499 15.0433 120.186 15.7309C120.874 16.4185 121.26 17.3512 121.26 18.3236C121.26 19.2961 120.874 20.2287 120.186 20.9163C119.499 21.604 118.566 21.9903 117.593 21.9903Z" fill="#3B54A5"/>
<path d="M88.9003 8.16754H86.6499C86.5907 8.16754 86.534 8.19105 86.4921 8.23289C86.4503 8.27473 86.4268 8.33147 86.4268 8.39064V13.1243C85.0943 12.167 83.4439 11.7605 81.8192 11.9894C80.4168 12.1919 79.1208 12.8525 78.133 13.8684C77.1452 14.8843 76.5211 16.1983 76.358 17.6058C76.2569 18.5016 76.3462 19.4086 76.6199 20.2675C76.8936 21.1263 77.3455 21.9177 77.9462 22.5899C78.5469 23.262 79.2828 23.7997 80.1057 24.1678C80.9285 24.5358 81.8199 24.726 82.7213 24.7257C84.0507 24.7242 85.3463 24.3071 86.4268 23.5326V24.5026C86.4267 24.5315 86.4326 24.5601 86.4439 24.5866C86.4552 24.6132 86.4718 24.6371 86.4927 24.6571C86.5135 24.677 86.5382 24.6925 86.5652 24.7027C86.5923 24.7128 86.6211 24.7173 86.6499 24.716H88.9003C88.9569 24.716 89.0112 24.6936 89.0512 24.6535C89.0912 24.6135 89.1137 24.5592 89.1137 24.5026V8.39064C89.115 8.36181 89.1105 8.33301 89.1004 8.30599C89.0902 8.27897 89.0747 8.25429 89.0548 8.23344C89.0348 8.21258 89.0108 8.19599 88.9843 8.18467C88.9577 8.17334 88.9292 8.16751 88.9003 8.16754ZM82.7213 21.9903C81.7488 21.9903 80.8162 21.604 80.1286 20.9164C79.441 20.2287 79.0546 19.2961 79.0546 18.3236C79.0546 17.3512 79.441 16.4185 80.1286 15.7309C80.8162 15.0433 81.7488 14.657 82.7213 14.657C83.6938 14.657 84.6264 15.0433 85.314 15.7309C86.0017 16.4185 86.388 17.3512 86.388 18.3236C86.388 19.2961 86.0017 20.2287 85.314 20.9164C84.6264 21.604 83.6938 21.9903 82.7213 21.9903Z" fill="#3B54A5"/>
<path d="M149.914 24.3377L145.064 17.4409L148.683 12.2707C148.706 12.2387 148.72 12.2009 148.723 12.1614C148.726 12.1218 148.718 12.0823 148.7 12.047C148.682 12.0118 148.654 11.9822 148.621 11.9618C148.587 11.9413 148.548 11.9308 148.508 11.9312H145.763C145.727 11.9292 145.692 11.9362 145.66 11.9514C145.627 11.9667 145.599 11.9897 145.578 12.0185L141.698 17.5961V8.39064C141.7 8.36181 141.695 8.33301 141.685 8.30599C141.675 8.27897 141.659 8.25429 141.639 8.23344C141.62 8.21258 141.596 8.19599 141.569 8.18467C141.542 8.17334 141.514 8.16751 141.485 8.16754H139.235C139.175 8.16754 139.119 8.19105 139.077 8.23289C139.035 8.27473 139.011 8.33147 139.011 8.39064V24.4638C139.011 24.4927 139.017 24.5213 139.029 24.5478C139.04 24.5744 139.057 24.5983 139.077 24.6183C139.098 24.6382 139.123 24.6537 139.15 24.6639C139.177 24.674 139.206 24.6786 139.235 24.6772H141.485C141.542 24.6772 141.596 24.6548 141.636 24.6147C141.676 24.5747 141.698 24.5204 141.698 24.4638V22.2813L143.454 19.7787L146.82 24.6287C146.842 24.6569 146.87 24.6795 146.902 24.6947C146.934 24.7099 146.969 24.7172 147.004 24.716H149.75C149.796 24.7232 149.844 24.7148 149.885 24.6921C149.926 24.6694 149.959 24.6336 149.978 24.5904C149.997 24.5472 150.001 24.499 149.989 24.4533C149.978 24.4076 149.951 24.367 149.914 24.3377Z" fill="#3B54A5"/>
<path d="M135.199 20.9233C135.18 20.9024 135.157 20.8857 135.131 20.8743C135.105 20.8629 135.077 20.857 135.049 20.857C135.021 20.857 134.993 20.8629 134.967 20.8743C134.941 20.8857 134.918 20.9024 134.899 20.9233C134.211 21.6018 133.284 21.9817 132.318 21.9806C131.801 21.9812 131.29 21.8725 130.818 21.6615C130.346 21.4505 129.924 21.142 129.579 20.7564C129.235 20.3707 128.976 19.9166 128.819 19.4237C128.663 18.9309 128.612 18.4105 128.671 17.8968C128.766 17.0957 129.121 16.3478 129.682 15.7678C130.242 15.1879 130.978 14.8078 131.775 14.6861C132.335 14.5965 132.909 14.6374 133.45 14.8057C133.992 14.9739 134.488 15.2649 134.899 15.6561C134.918 15.677 134.941 15.6936 134.967 15.705C134.993 15.7164 135.021 15.7223 135.049 15.7223C135.077 15.7223 135.105 15.7164 135.131 15.705C135.157 15.6936 135.18 15.677 135.199 15.6561L136.897 14.1332C136.938 14.0899 136.961 14.0326 136.961 13.9731C136.961 13.9136 136.938 13.8563 136.897 13.813C136.199 13.0889 135.339 12.5401 134.388 12.2114C133.437 11.8827 132.422 11.7833 131.426 11.9215C130.022 12.1159 128.722 12.771 127.73 13.784C126.738 14.7969 126.11 16.1104 125.945 17.5185C125.84 18.4152 125.926 19.3242 126.197 20.1854C126.468 21.0466 126.918 21.8406 127.519 22.5151C128.119 23.1896 128.855 23.7293 129.679 24.0986C130.503 24.468 131.396 24.6585 132.299 24.6578C133.156 24.6599 134.005 24.4891 134.795 24.1558C135.585 23.8225 136.3 23.3334 136.897 22.7178C136.918 22.697 136.935 22.6721 136.947 22.6446C136.959 22.6171 136.965 22.5876 136.965 22.5578C136.965 22.5279 136.959 22.4984 136.947 22.4709C136.935 22.4434 136.918 22.4185 136.897 22.3977L135.199 20.9233Z" fill="#3B54A5"/>
<path d="M109.989 11.9312C108.736 11.9788 107.525 12.3938 106.506 13.1243V12.1543C106.506 12.0977 106.484 12.0434 106.444 12.0034C106.404 11.9634 106.349 11.9409 106.293 11.9409H104.042C103.985 11.9408 103.929 11.963 103.888 12.0028C103.846 12.0425 103.822 12.0968 103.819 12.1543V24.5123C103.819 24.5715 103.843 24.6282 103.885 24.6701C103.926 24.7119 103.983 24.7354 104.042 24.7354H106.293C106.322 24.7354 106.35 24.7296 106.377 24.7183C106.403 24.707 106.427 24.6904 106.447 24.6695C106.467 24.6487 106.483 24.624 106.493 24.597C106.503 24.5699 106.507 24.5411 106.506 24.5123V18.343C106.515 17.4013 106.881 16.4981 107.532 15.817C108.182 15.1359 109.068 14.7281 110.008 14.6763C110.065 14.6716 110.118 14.6464 110.157 14.6053C110.196 14.5641 110.219 14.5101 110.221 14.4532V12.164C110.223 12.133 110.218 12.1022 110.206 12.0733C110.195 12.0444 110.178 12.0182 110.156 11.9963C110.134 11.9744 110.108 11.9573 110.079 11.9461C110.05 11.9349 110.019 11.9298 109.989 11.9312Z" fill="#3B54A5"/>
</svg>
